<?xml version="1.0" encoding="utf-8"?>
<!-- Generator: Adobe Illustrator 18.0.0, SVG Export Plug-In . SVG Version: 6.00 Build 0)  -->
<!DOCTYPE svg PUBLIC "-//W3C//DTD SVG 1.1//EN" "http://www.w3.org/Graphics/SVG/1.1/DTD/svg11.dtd">
<svg version="1.1" id="圖層_1" xmlns="http://www.w3.org/2000/svg" xmlns:xlink="http://www.w3.org/1999/xlink" x="0px" y="0px"
	 viewBox="0 0 770.7 178.7" enable-background="new 0 0 770.7 178.7" xml:space="preserve">
<g id="文字_2_">
	<path fill="#FFFFFF" d="M36.2,64.8c0,1.5,0,3.6,0,6.5h19.1v7.3H36.2v77.7h-7.3V78.6H16.5v-7.3h12.3c0-2.9,0-5.2,0-6.9
		c0.3-10,1-17.4,2.2-22.4c1.5-6.3,4-11,7.6-14.2c4.2-3.7,10-5.9,17.4-6.5v6.6c-4.7,0.4-8.6,1.9-11.7,4.5
		C39.4,36.9,36.7,47.7,36.2,64.8z"/>
	<path fill="#FFFFFF" d="M150.2,72.1v84h-7.3v-9.5v-5.1c-2,2.9-4.6,5.9-7.9,8.8c-6.8,6-14.6,8.9-23.3,8.9c-10.6,0-19.2-4.4-26-13.2
		c-6.2-8.1-9.2-17.6-9.2-28.6c0-2.8,0.2-5.7,0.7-8.6c2-12.1,7.2-21.9,15.7-29.3c7.9-7,17.4-10.2,28.6-9.4
		C129.2,70.2,138.8,70.9,150.2,72.1z M142.9,116.3V78.6c-12.6-1-20.3-1.5-23-1.5c-8.5-0.6-16.2,2.2-23,8.2c-4,3.5-7.2,8.5-9.5,14.8
		c-2.2,5.8-3.2,11.6-3.2,17.6c0,7.4,1.6,13.8,4.7,19.2c5.9,9.9,13.3,14.8,22.3,14.8c7.1,0,13.9-2.7,20.2-8.2
		C138.9,136.8,142.8,127.7,142.9,116.3z"/>
	<path fill="#FFFFFF" d="M257.1,110.4v45.7h-7.6v-45.7c0-9.3-1.5-16.4-4.4-21.3c-2.2-4-4.7-6.9-7.5-8.6c-2.7-1.8-6.7-3.1-12-4
		c-1.1-0.2-2.2-0.3-3.2-0.3c-7.1,0-13.9,2.8-20.2,8.4c-7.7,6.8-11.6,15.3-11.6,25.2v46.3h-7.3V71.4h7.3v15.1
		c3.6-5.3,8.2-9.5,13.7-12.8c5.5-3.2,11.4-4.8,17.5-4.8c1.8,0,3.5,0.1,5.1,0.3c6.5,1.1,11.6,2.8,15.2,5.1c3.6,2.3,6.8,5.8,9.7,10.6
		C255.4,90.9,257.1,99.4,257.1,110.4z"/>
	<path fill="#FFFFFF" d="M322.3,122.4c3.4,4,5.1,8.3,5.1,12.9c0,1.8-0.2,3.7-0.6,5.9c-1.2,5.9-4,10.4-8.5,13.5
		c-4.1,3-9.1,4.5-15.1,4.5c-2.2,0-4.3-0.2-6.5-0.7c-6.2-1.2-11.1-3.2-15-6.2l0.3-8.1c6.5,5.8,13.5,8.7,21.3,8.7
		c8.8,0,14.1-4.7,15.8-14.1c0.2-1,0.3-2,0.3-2.9c0-5.1-3.3-10.1-9.8-15c-6.1-4.1-12.2-8.2-18.3-12.3c-6.6-5.4-9.8-11.2-9.8-17.6
		c0-1.4,0.1-2.8,0.4-4.4c2.1-10.9,9.1-16.4,20.8-16.4c9.9,0,17.6,2.9,23.3,8.8l-0.7,6.9c-3-3-5.7-5.1-8.1-6.2
		c-1.9-1-4.6-1.8-8.2-2.3c-1.8-0.3-3.4-0.4-4.8-0.4c-8.2,0-13.1,3.9-14.7,11.7c-0.3,1.3-0.4,2.3-0.4,3.2c0,4.9,4.8,10.3,14.5,16.1
		C312.7,113.6,318.9,118.4,322.3,122.4z"/>
	<path fill="#FFFFFF" d="M644.6,83.6c8.4,9.3,12.6,20.5,12.6,33.4c0,14.9-3.7,26.5-11.1,34.9c-7.4,8.4-17.6,12.6-30.7,12.6
		c-12.6,0-22.7-4.2-30.3-12.7c-7.6-8.5-11.5-20-11.5-34.7c0-13,4.2-24.1,12.6-33.4c8.4-9.3,18.1-14,29.1-14
		C626.5,69.6,636.3,74.3,644.6,83.6z M639.9,145.9c6.3-7.2,9.4-16.8,9.4-28.8c0-10.8-3.4-20.1-10.2-27.9
		c-6.8-7.8-14.7-11.7-23.6-11.7c-8.9,0-16.7,3.9-23.6,11.7c-6.8,7.8-10.2,17.1-10.2,27.9c0,12.2,3.1,21.9,9.3,29
		c6.2,7.1,14.3,10.6,24.5,10.6C625.5,156.6,633.6,153,639.9,145.9z"/>
	<path fill="#FFFFFF" d="M741.5,83.6c8.4,9.3,12.6,20.5,12.6,33.4c0,14.9-3.7,26.5-11.1,34.9c-7.4,8.4-17.6,12.6-30.7,12.6
		c-12.6,0-22.7-4.2-30.3-12.7c-7.6-8.5-11.5-20-11.5-34.7c0-13,4.2-24.1,12.6-33.4c8.4-9.3,18.1-14,29.1-14
		C723.4,69.6,733.1,74.3,741.5,83.6z M736.8,145.9c6.3-7.2,9.4-16.8,9.4-28.8c0-10.8-3.4-20.1-10.2-27.9
		c-6.8-7.8-14.7-11.7-23.6-11.7c-8.9,0-16.7,3.9-23.6,11.7c-6.8,7.8-10.2,17.1-10.2,27.9c0,12.2,3.1,21.9,9.3,29
		c6.2,7.1,14.3,10.6,24.5,10.6C722.4,156.6,730.5,153,736.8,145.9z"/>
</g>
<path fill="#DD3C7B" d="M547.6,111.3c-10.9,1.8-25.3-11.1-25.3-11.1s9.6-16.7,20.5-18.4c10.9-1.8,25.3,11.1,25.3,11.1
	S558.5,109.5,547.6,111.3z"/>
<path fill="#ED8D25" d="M546.5,49.1C542.3,59.4,524,65.1,524,65.1s-9.3-16.8-5.2-27.1c4.1-10.3,22.5-15.9,22.5-15.9
	S550.6,38.9,546.5,49.1z"/>
<path fill="#84AE43" d="M504.3,50.8c3.6,10.5-6.7,26.7-6.7,26.7s-18-6.7-21.6-17.2c-3.6-10.5,6.7-26.7,6.7-26.7
	S500.8,40.3,504.3,50.8z"/>
<g>
	<polyline fill="#FFFFFF" points="324.1,16.1 398.1,148.1 452.7,72.1 460.9,75.2 397.1,164.5 313.4,14.5 	"/>
</g>
<g>
	<polyline fill="#FFFFFF" points="526.4,73.6 476,164.1 412.1,74.7 419.3,69.6 475.3,147.9 517.7,72.9 	"/>
</g>
</svg>
